<?xml version="1.0" encoding="UTF-8"?>
<svg xmlns="http://www.w3.org/2000/svg" style="stroke-dasharray:none; shape-rendering:auto; font-family:'Arial'; text-rendering:auto; fill-opacity:1; color-interpolation:auto; color-rendering:auto; font-size:12; fill:black; stroke:black; image-rendering:auto; stroke-miterlimit:10; stroke-linecap:square; stroke-linejoin:miter; font-style:normal; stroke-width:1; stroke-dashoffset:0; font-weight:normal; stroke-opacity:1;" contentScriptType="text/ecmascript" preserveAspectRatio="xMidYMid meet" zoomAndPan="magnify" version="1.0" contentStyleType="text/css" xml:xlink="http://www.w3.org/1999/xlink" width="1051" height="581"><rect x="10" y="10" width="1041" height="571" ry="0" rx="0" style="stroke:#000000; fill:#FFFFFF" /><rect x="40" y="390" width="1011" height="191" ry="0" rx="0" style="stroke:#000000; fill:#82B0B7" /><g componentSequence="7"><text x="-485" y="47" transform="rotate(270)" text-anchor="middle" style="font-weight:bold;font-size:10px;stroke:none; fill:#434343"><tspan dy="14" x="-485">T.i.</tspan></text></g><rect x="40" y="200" width="1011" height="190" ry="0" rx="0" style="stroke:#000000; fill:#C0C0C0" /><g componentSequence="3"><text x="-295" y="47" transform="rotate(270)" text-anchor="middle" style="font-weight:bold;font-size:10px;stroke:none; fill:#434343"><tspan dy="14" x="-295">Controlador de Manutenção</tspan></text></g><rect x="40" y="10" width="1011" height="190" ry="0" rx="0" style="stroke:#000000; fill:#9F9F9F" /><g componentSequence="2"><text x="-105" y="47" transform="rotate(270)" text-anchor="middle" style="font-weight:bold;font-size:10px;stroke:none; fill:#434343"><tspan dy="14" x="-105">Mecânico</tspan></text></g><g componentSequence="1"><text x="-295" y="17" transform="rotate(270)" text-anchor="middle" style="font-weight:bold;font-size:10px;stroke:none; fill:#434343"><tspan dy="14" x="-295">Ordem de Serviço Corretiva</tspan></text></g><g sequence="4"><ellipse cx="87" cy="106" rx="17" ry="17" stroke-width="1" style="fill:url(#linearGradient66FF6696FF96B6FFB6_1885923031);" stroke="336633" /></g><g sequence="5"><rect x="330" y="269" width="106" height="56" ry="5" rx="5" style="fill:url(#linearGradientF8FBFEEDF5FCDEEDFAD4E7F8E2E5E9_2125399722);" stroke="191970" /></g><g componentSequence="5"><text x="383" y="286" text-anchor="middle" style="font-weight:bold;font-size:10px;stroke:none; fill:#333399"><tspan dy="14" x="383">Tratativa OS</tspan></text></g><g sequence="10"><rect x="750" y="453" width="106" height="70" ry="5" rx="5" style="fill:url(#linearGradientF8FBFEEDF5FCDEEDFAD4E7F8E2E5E9_2056293799);" stroke="191970" /></g><g componentSequence="10"><text x="803" y="468" text-anchor="middle" style="font-weight:bold;font-size:10px;stroke:none; fill:#333399"><tspan dy="14" x="803">Resolve Erros</tspan><tspan dy="14" x="803">de Integração</tspan></text></g><g sequence="14"><rect x="600" y="248" width="106" height="98" ry="5" rx="5" style="fill:url(#linearGradientF8FBFEEDF5FCDEEDFAD4E7F8E2E5E9_1066536081);" stroke="191970" /></g><g componentSequence="14"><text x="653" y="263" text-anchor="middle" style="font-weight:bold;font-size:10px;stroke:none; fill:#333399"><tspan dy="14" x="653">Acompanhament</tspan><tspan dy="14" x="653">os de Peças e</tspan><tspan dy="14" x="653">Serviços</tspan><tspan dy="14" x="653">Externos</tspan></text></g><g sequence="16"><rect x="600" y="72" width="106" height="70" ry="5" rx="5" style="fill:url(#linearGradientF8FBFEEDF5FCDEEDFAD4E7F8E2E5E9_142281706);" stroke="191970" /></g><g componentSequence="16"><text x="653" y="87" text-anchor="middle" style="font-weight:bold;font-size:10px;stroke:none; fill:#333399"><tspan dy="14" x="653">Execução do</tspan><tspan dy="14" x="653">Serviço</tspan></text></g><g sequence="18"><ellipse cx="1007" cy="106" rx="17" ry="17" stroke-width="3" style="fill:url(#linearGradientFF6666FF9696FFB6B6_250074649);" stroke="993333" /></g><g sequence="22"><ellipse cx="1007" cy="487" rx="17" ry="17" stroke-width="3" style="fill:url(#linearGradientFF6666FF9696FFB6B6_1894027223);" stroke="993333" /></g><g componentSequence="17"><text x="663" y="195" style="font-size:10px;font-weight:none;stroke:none; fill:#333399" text-anchor="left" /></g><g componentSequence="21"><text x="513" y="161" style="font-size:10px;font-weight:none;stroke:none; fill:#333399" text-anchor="left" /></g><g componentSequence="23"><text x="933" y="487" style="font-size:10px;font-weight:none;stroke:none; fill:#333399" text-anchor="left" /></g><g componentSequence="31"><text x="528" y="297" style="font-size:10px;font-weight:none;stroke:none; fill:#333399" text-anchor="left" /></g><g componentSequence="45"><text x="663" y="195" style="font-size:10px;font-weight:none;stroke:none; fill:#333399" text-anchor="left" /></g><g componentSequence="53"><text x="110" y="282" style="font-size:10px;font-weight:none;stroke:none; fill:#333399" text-anchor="left"><tspan dy="14" x="110">Corrigir Dados OS</tspan></text></g><g componentSequence="56"><text x="270" y="92" style="font-size:10px;font-weight:none;stroke:none; fill:#333399" text-anchor="left"><tspan dy="14" x="270">Tratativa OS</tspan></text></g><g componentSequence="57"><text x="810" y="106" style="font-size:10px;font-weight:none;stroke:none; fill:#333399" text-anchor="left"><tspan dy="14" x="810">Encerrar OS</tspan></text></g><g componentSequence="58"><text x="798" y="281" style="font-size:10px;font-weight:none;stroke:none; fill:#333399" text-anchor="left" /></g><g componentSequence="59"><text x="799" y="280" style="font-size:10px;font-weight:none;stroke:none; fill:#333399" text-anchor="left" /></g><g componentSequence="60"><text x="557" y="34" style="font-size:10px;font-weight:none;stroke:none; fill:#333399" text-anchor="left"><tspan dy="14" x="557">Encerrar OS</tspan></text></g><path style="fill:none; stroke:#000000;stroke-width:1" d="M105.0 106.0 L382.0 106.0 L382.0 268.0" /><polygon style="fill:#000000; stroke:#000000;" points=" 387 258 382 268 377 258 382 260" /><path style="fill:none; stroke:#000000;stroke-width:1" d="M87.0 88.0 L87.0 34.0 L1007.0 34.0 L1007.0 88.0" /><polygon style="fill:#000000; stroke:#000000;" points=" 1012 78 1007 88 1002 78 1007 80" /><path style="fill:none; stroke:#000000;stroke-width:1" d="M329.0 296.0 L87.0 296.0 L87.0 124.0" /><polygon style="fill:#000000; stroke:#000000;" points=" 82 134 87 124 92 134 87 132" /><path style="fill:none; stroke:#000000;stroke-width:1" d="M436.0 270.0 L503.0 237.0 L503.0 107.0 L599.0 107.0" /><polygon style="fill:#000000; stroke:#000000;" points=" 589 102 599 107 589 112 591 107" /><path style="fill:none; stroke:#000000;stroke-width:1" d="M436.0 297.0 L599.0 297.0" /><polygon style="fill:#000000; stroke:#000000;" points=" 589 292 599 297 589 302 591 297" /><path style="fill:none; stroke:#000000;stroke-width:1" d="M856.0 487.0 L990.0 487.0" /><polygon style="fill:#000000; stroke:#000000;" points=" 980 482 990 487 980 492 982 487" /><path style="fill:none; stroke:#000000;stroke-width:1" d="M802.0 452.0 L802.0 297.0 L680.0 142.0" /><polygon style="fill:#000000; stroke:#000000;" points=" 682 153 680 142 690 147 685 148" /><path style="fill:none; stroke:#000000;stroke-width:1" d="M680.0 142.0 L802.0 299.0 L802.0 452.0" /><polygon style="fill:#000000; stroke:#000000;" points=" 807 442 802 452 797 442 802 444" /><path style="fill:none; stroke:#000000;stroke-width:1" d="M653.0 247.0 L653.0 142.0" /><polygon style="fill:#000000; stroke:#000000;" points=" 648 152 653 142 658 152 653 150" /><path style="fill:none; stroke:#000000;stroke-width:1" d="M653.0 142.0 L653.0 247.0" /><polygon style="fill:#000000; stroke:#000000;" points=" 658 237 653 247 648 237 653 239" /><path style="fill:none; stroke:#000000;stroke-width:1" d="M706.0 106.0 L990.0 106.0" /><polygon style="fill:#000000; stroke:#000000;" points=" 980 101 990 106 980 111 982 106" /><defs><linearGradient xmlns:xlink="http://www.w3.org/1999/xlink" xlink:href="#linearGradient66FF6696FF96B6FFB6" id="linearGradient66FF6696FF96B6FFB6_1885923031" x1="0" y1="89.0" x2="0" y2="124.0" gradientUnits="userSpaceOnUse" xlink:type="simple" xlink:actuate="onLoad" xlink:show="other" /><linearGradient id="linearGradient66FF6696FF96B6FFB6"><stop style="stop-color:#66FF66;stop-opacity:1;" offset="0.0" id="stop66FF66" /><stop style="stop-color:#96FF96;stop-opacity:1;" offset="0.5" id="stop96FF96" /><stop style="stop-color:#B6FFB6;stop-opacity:1;" offset="1.0" id="stopB6FFB6" /></linearGradient><linearGradient xmlns:xlink="http://www.w3.org/1999/xlink" xlink:href="#linearGradientF8FBFEEDF5FCDEEDFAD4E7F8E2E5E9" id="linearGradientF8FBFEEDF5FCDEEDFAD4E7F8E2E5E9_2125399722" x1="0" y1="269.0" x2="0" y2="375.0" gradientUnits="userSpaceOnUse" xlink:type="simple" xlink:actuate="onLoad" xlink:show="other" /><linearGradient id="linearGradientF8FBFEEDF5FCDEEDFAD4E7F8E2E5E9"><stop style="stop-color:#F8FBFE;stop-opacity:1;" offset="0.0" id="stopF8FBFE" /><stop style="stop-color:#EDF5FC;stop-opacity:1;" offset="0.25" id="stopEDF5FC" /><stop style="stop-color:#DEEDFA;stop-opacity:1;" offset="0.5" id="stopDEEDFA" /><stop style="stop-color:#D4E7F8;stop-opacity:1;" offset="0.75" id="stopD4E7F8" /><stop style="stop-color:#E2E5E9;stop-opacity:1;" offset="1.0" id="stopE2E5E9" /></linearGradient><linearGradient xmlns:xlink="http://www.w3.org/1999/xlink" xlink:href="#linearGradientF8FBFEEDF5FCDEEDFAD4E7F8E2E5E9" id="linearGradientF8FBFEEDF5FCDEEDFAD4E7F8E2E5E9_2056293799" x1="0" y1="453.0" x2="0" y2="559.0" gradientUnits="userSpaceOnUse" xlink:type="simple" xlink:actuate="onLoad" xlink:show="other" /><linearGradient xmlns:xlink="http://www.w3.org/1999/xlink" xlink:href="#linearGradientF8FBFEEDF5FCDEEDFAD4E7F8E2E5E9" id="linearGradientF8FBFEEDF5FCDEEDFAD4E7F8E2E5E9_1066536081" x1="0" y1="248.0" x2="0" y2="354.0" gradientUnits="userSpaceOnUse" xlink:type="simple" xlink:actuate="onLoad" xlink:show="other" /><linearGradient xmlns:xlink="http://www.w3.org/1999/xlink" xlink:href="#linearGradientF8FBFEEDF5FCDEEDFAD4E7F8E2E5E9" id="linearGradientF8FBFEEDF5FCDEEDFAD4E7F8E2E5E9_142281706" x1="0" y1="72.0" x2="0" y2="178.0" gradientUnits="userSpaceOnUse" xlink:type="simple" xlink:actuate="onLoad" xlink:show="other" /><linearGradient xmlns:xlink="http://www.w3.org/1999/xlink" xlink:href="#linearGradientFF6666FF9696FFB6B6" id="linearGradientFF6666FF9696FFB6B6_250074649" x1="0" y1="89.0" x2="0" y2="124.0" gradientUnits="userSpaceOnUse" xlink:type="simple" xlink:actuate="onLoad" xlink:show="other" /><linearGradient id="linearGradientFF6666FF9696FFB6B6"><stop style="stop-color:#FF6666;stop-opacity:1;" offset="0.0" id="stopFF6666" /><stop style="stop-color:#FF9696;stop-opacity:1;" offset="0.5" id="stopFF9696" /><stop style="stop-color:#FFB6B6;stop-opacity:1;" offset="1.0" id="stopFFB6B6" /></linearGradient><linearGradient xmlns:xlink="http://www.w3.org/1999/xlink" xlink:href="#linearGradientFF6666FF9696FFB6B6" id="linearGradientFF6666FF9696FFB6B6_1894027223" x1="0" y1="470.0" x2="0" y2="505.0" gradientUnits="userSpaceOnUse" xlink:type="simple" xlink:actuate="onLoad" xlink:show="other" /></defs></svg>
